<?xml version="1.0" encoding="UTF-8" standalone="no"?>
<!-- Created with Inkscape (http://www.inkscape.org/) -->

<svg
   xmlns:dc="http://purl.org/dc/elements/1.1/"
   xmlns:cc="http://creativecommons.org/ns#"
   xmlns:rdf="http://www.w3.org/1999/02/22-rdf-syntax-ns#"
   xmlns:svg="http://www.w3.org/2000/svg"
   xmlns="http://www.w3.org/2000/svg"
   xmlns:sodipodi="http://sodipodi.sourceforge.net/DTD/sodipodi-0.dtd"
   xmlns:inkscape="http://www.inkscape.org/namespaces/inkscape"
   width="64px"
   height="64px"
   id="svg2985"
   version="1.1"
   inkscape:version="0.48.2 r9819"
   sodipodi:docname="chatphrase-icon.svg">
  <defs
     id="defs2987" />
  <sodipodi:namedview
     id="base"
     pagecolor="#ffffff"
     bordercolor="#666666"
     borderopacity="1.0"
     inkscape:pageopacity="0.0"
     inkscape:pageshadow="2"
     inkscape:zoom="8.453125"
     inkscape:cx="32"
     inkscape:cy="32"
     inkscape:current-layer="layer1"
     showgrid="false"
     inkscape:document-units="px"
     inkscape:grid-bbox="true"
     showborder="false"
     inkscape:window-width="1280"
     inkscape:window-height="738"
     inkscape:window-x="-8"
     inkscape:window-y="-8"
     inkscape:window-maximized="1"
     inkscape:snap-global="true"
     inkscape:showpageshadow="false">
    <inkscape:grid
       type="xygrid"
       id="grid2993"
       empspacing="4"
       visible="true"
       enabled="true"
       snapvisiblegridlinesonly="true" />
  </sodipodi:namedview>
  <metadata
     id="metadata2990">
    <rdf:RDF>
      <cc:Work
         rdf:about="">
        <dc:format>image/svg+xml</dc:format>
        <dc:type
           rdf:resource="http://purl.org/dc/dcmitype/StillImage" />
        <dc:title></dc:title>
      </cc:Work>
    </rdf:RDF>
  </metadata>
  <g
     id="layer1"
     inkscape:label="Layer 1"
     inkscape:groupmode="layer">
    <path
       style="fill:#1d143c;fill-opacity:1;stroke:none"
       d="M 12,48 8,48 C 4,48 0,44 0,40 L 0,16 C 0,12 4,8 8,8 L 48,8 C 52,8 56,12 56,16 L 64,12 64,44 56,40 C 56,44 52,48 48,48 L 24,48 12,60 z"
       id="path2997"
       inkscape:connector-curvature="0"
       sodipodi:nodetypes="cccccccccccccc" />
    <path
       style="fill:#312164;fill-opacity:1;stroke:none"
       d="M 8 12 C 6 12 4 14 4 16 L 4 40 C 4 42 6 44 8 44 L 16 44 L 16 51 L 22.125 44 L 48 44 C 50 44 52 42 52 40 L 52 34 L 60 38 L 60 18 L 52 22 L 52 16 C 52 14 50 12 48 12 L 8 12 z "
       id="path3009" />
    <path
       sodipodi:nodetypes="ccccc"
       inkscape:connector-curvature="0"
       id="path3785"
       d="M 6,42 6,22 50,22 50,42 z"
       style="fill:#1d143c;fill-opacity:1;stroke:none" />
    <path
       style="fill:#f6f4fc;fill-opacity:1;stroke:none"
       d="M 8,40 8,24 48,24 48,40 z"
       id="path2999"
       inkscape:connector-curvature="0"
       sodipodi:nodetypes="ccccc" />
    <path
       style="fill:#1d143c;fill-opacity:1;stroke:none"
       d="M 12,32 24,32 24,36 12,36 z"
       id="path3001"
       inkscape:connector-curvature="0"
       sodipodi:nodetypes="ccccc" />
  </g>
</svg>
